<svg xmlns="http://www.w3.org/2000/svg" xmlns:xlink="http://www.w3.org/1999/xlink" width="1080" zoomAndPan="magnify" viewBox="0 0 810 809.999993" height="1080" preserveAspectRatio="xMidYMid meet" version="1.0"><defs><clipPath id="a3e4e6f5d7"><path d="M 0 172 L 794 172 L 794 696.898438 L 0 696.898438 Z M 0 172 " clip-rule="nonzero"/></clipPath></defs><g clip-path="url(#a3e4e6f5d7)"><path fill="#000000" d="M 732.976562 180.910156 C 724.25 176.5625 713.320312 174.375 713.320312 174.375 C 709.457031 173.527344 700.714844 172.25 694.429688 172.25 C 648.488281 172.25 600.035156 213.03125 573.847656 273.742188 C 558.738281 308.785156 553.265625 345.703125 558.429688 377.710938 C 563.683594 410.226562 579.335938 435.84375 602.53125 447.632812 L 578.410156 501.15625 C 573.34375 502.636719 568.367188 504.628906 563.730469 507.699219 L 470.996094 569.121094 C 470.996094 569.121094 338.027344 368.835938 337.695312 368.378906 C 322.039062 340.300781 272.179688 312.40625 224.269531 325.867188 C 111.488281 360.316406 12.050781 571.773438 0.144531 696.714844 L 342.101562 696.8125 L 348.40625 613.320312 L 249.148438 461.839844 C 246.277344 457.460938 247.496094 451.59375 251.871094 448.722656 C 256.238281 445.84375 262.09375 447.085938 264.972656 451.449219 L 413.394531 675.902344 C 423.828125 689.613281 439.710938 697.074219 455.964844 697.074219 C 466.132812 697.074219 476.394531 694.183594 485.503906 688.140625 L 622.910156 597.128906 C 647.59375 580.78125 654.359375 547.503906 638.003906 522.808594 C 631.5625 513.066406 622.449219 506.242188 612.3125 502.394531 L 630.914062 461.140625 C 639.363281 463.875 648.03125 465.257812 656.792969 465.257812 C 675.519531 465.257812 694.574219 459.023438 712.589844 446.777344 C 738.589844 429.089844 761.59375 399.203125 777.371094 362.628906 C 810.503906 285.785156 789.539062 209.109375 732.976562 180.910156 Z M 729.941406 341.128906 C 708.652344 390.519531 668.339844 426.355469 634.09375 426.355469 C 627.945312 426.355469 622.121094 425.183594 616.746094 422.863281 C 600.277344 415.769531 589 398.199219 584.980469 373.398438 C 580.621094 346.394531 585.445312 314.792969 598.539062 284.390625 C 619.84375 235.011719 660.167969 199.160156 694.429688 199.160156 C 700.550781 199.160156 706.382812 200.332031 711.71875 202.625 C 747.332031 218.011719 755.675781 281.4375 729.941406 341.128906 Z M 729.941406 341.128906 " fill-opacity="1" fill-rule="nonzero"/></g><path fill="#000000" d="M 352.480469 341.382812 C 406.457031 373.382812 476.207031 355.492188 508.167969 301.503906 C 540.179688 247.441406 522.304688 177.671875 468.335938 145.675781 C 414.261719 113.632812 344.574219 131.527344 312.566406 185.585938 C 280.582031 239.582031 298.40625 309.347656 352.480469 341.382812 Z M 352.480469 341.382812 " fill-opacity="1" fill-rule="nonzero"/><path fill="#000000" d="M 662.703125 261.632812 C 672.601562 252.023438 682.75 247.9375 690.53125 250.429688 C 695.078125 251.859375 698.917969 255.472656 701.925781 261.160156 C 704.121094 265.261719 709.1875 266.839844 713.3125 264.644531 C 717.425781 262.464844 718.972656 257.363281 716.800781 253.253906 C 711.710938 243.660156 704.382812 237.132812 695.617188 234.359375 C 681.523438 229.875 665.671875 235.269531 650.976562 249.535156 C 637.632812 262.496094 626.464844 281.625 619.542969 303.40625 C 615.300781 316.839844 612.867188 330.730469 612.519531 343.570312 C 612.386719 348.226562 616.0625 352.089844 620.714844 352.21875 C 620.789062 352.21875 620.871094 352.21875 620.933594 352.21875 C 625.488281 352.21875 629.222656 348.597656 629.34375 344.019531 C 629.652344 332.734375 631.808594 320.453125 635.605469 308.5 C 641.6875 289.332031 651.308594 272.691406 662.703125 261.632812 Z M 662.703125 261.632812 " fill-opacity="1" fill-rule="nonzero"/></svg>