<svg width="148" height="148" viewBox="0 0 148 148" fill="none" xmlns="http://www.w3.org/2000/svg">
<g clip-path="url(#clip0_0_115)">
<rect width="148" height="148" fill="white"/>
<rect width="148" height="148" fill="#570DC9"/>
<g filter="url(#filter0_d_0_115)">
<path fill-rule="evenodd" clip-rule="evenodd" d="M119.479 52.983C122.855 52.983 125.306 51.4433 126.309 48.6782C126.429 48.3482 126.504 48.0035 126.587 47.6207C126.628 47.4307 126.671 47.2312 126.723 47.0195H22.2776C22.329 47.2302 22.372 47.4287 22.4129 47.618C22.496 48.0019 22.5707 48.3474 22.6908 48.6782C23.6937 51.4433 26.1452 52.983 29.5218 52.983H119.479ZM106.397 85.0691C106.029 84.7197 105.661 84.3703 105.321 83.9997C104.202 82.7798 104.204 81.5151 105.325 80.2952C105.609 79.9866 105.915 79.6952 106.221 79.4038C106.481 79.1554 106.742 78.9069 106.989 78.6476C109.359 76.1618 109.348 72.6786 106.967 70.1987C103.876 65.4742 106.574 57.5608 107.136 57.0086L107.047 56.8253C106.636 56.8253 106.224 56.8241 105.812 56.823C104.482 56.8193 103.152 56.8156 101.824 56.8504C101.603 56.8564 101.346 57.1809 101.186 57.4051C99.6626 59.5499 100.008 68.8999 101.965 70.9312C102.21 71.1855 102.467 71.4307 102.723 71.676C103.027 71.9661 103.33 72.2563 103.615 72.5613C104.611 73.629 104.629 75.2041 103.642 76.2794C103.347 76.6012 103.028 76.9052 102.709 77.2093C102.481 77.4268 102.253 77.6442 102.034 77.8682C99.5933 80.3596 99.5976 83.9477 102.043 86.4366C102.201 86.598 102.373 86.7512 102.545 86.9043C102.862 87.1876 103.179 87.4703 103.411 87.8027C103.853 88.4346 104.277 89.1288 104.455 89.8481C104.77 91.1171 105.626 91.9012 106.841 91.7707C108.041 91.642 108.74 90.7508 108.7 89.4878C108.65 87.978 108.056 86.6873 106.934 85.5855C106.757 85.4117 106.577 85.2404 106.397 85.0691ZM56.7403 68.3605L52.6571 68.3332C52.1525 70.75 51.2594 72.9391 49.9293 74.2093L49.8836 74.2541C49.5085 74.6378 50.1051 75.3546 50.1051 75.3546C52.0652 77.2759 53.1272 79.5541 53.1558 82.2374C53.1558 82.2374 53.5228 83.9392 55.0958 83.3699C55.0958 83.3699 57.638 81.9019 58.6512 80.9241C61.7096 78.2843 65.2769 76.7276 69.4546 76.3694C69.8617 76.3344 79.1383 76.3344 79.5454 76.3694C83.7231 76.7276 87.3336 78.2353 90.3488 80.9241C92.6015 82.9325 94.9507 83.7085 95.2424 83.6786C95.6906 83.6326 95.8442 82.2374 95.8442 82.2374C95.8728 79.5541 96.9348 77.2759 98.8949 75.3546C98.8949 75.3546 99.4919 74.6378 99.1164 74.2541L99.0711 74.2093C97.741 72.9391 96.8475 70.75 96.3429 68.3332L92.2602 68.3605C91.6477 68.349 91.3757 68.6069 91.1507 69.125L91.1229 69.1911C89.7732 72.4769 87.101 74.3521 83.8989 74.3151C80.7626 74.2788 78.09 72.4257 76.8318 69.328C76.8318 69.328 76.6701 68.2931 75.5316 68.3622C75.1103 68.3882 73.8901 68.3767 73.4688 68.3622C72.4642 68.3285 72.1682 69.328 72.1682 69.328C70.91 72.4257 68.2374 74.2788 65.1011 74.3151C61.899 74.3521 59.2268 72.4769 57.8771 69.1911L57.8493 69.125C57.6243 68.6069 57.3523 68.349 56.7403 68.3605ZM65.0464 70.8915C67.4085 70.8915 69.3233 68.9826 69.3233 66.6276C69.3233 64.2726 67.4085 62.3637 65.0464 62.3637C62.6843 62.3637 60.7695 64.2726 60.7695 66.6276C60.7695 68.9826 62.6843 70.8915 65.0464 70.8915ZM83.954 70.8915C86.3162 70.8915 88.2309 68.9826 88.2309 66.6276C88.2309 64.2726 86.3162 62.3637 83.954 62.3637C81.5919 62.3637 79.6772 64.2726 79.6772 66.6276C79.6772 68.9826 81.5919 70.8915 83.954 70.8915ZM92.1947 64.9101C92.2957 64.9016 93.8888 64.8956 95.7283 64.8918C95.5871 62.6877 96.3253 57.3565 96.357 57.247H52.6434C52.6747 57.3565 53.4129 62.6877 53.2717 64.8918C55.1116 64.8956 56.7048 64.9016 56.8053 64.9101L56.8549 64.9139C57.3035 64.9472 57.7299 64.9054 57.9609 64.2679C58.5571 62.6212 59.5848 61.2768 61.1343 60.352C65.3004 57.8644 70.5358 59.5222 72.3667 63.9362C72.3667 63.9362 72.9449 64.9131 73.6955 64.9212C74.021 64.925 74.979 64.925 75.3045 64.9212C76.0551 64.9131 76.6333 63.9362 76.6333 63.9362C78.4642 59.5222 83.6996 57.8644 87.8657 60.352C89.4152 61.2768 90.4429 62.6212 91.0391 64.2679C91.2701 64.9054 91.6965 64.9472 92.1451 64.9139L92.1947 64.9101ZM98.0913 102.086C98.173 98.4485 100.015 96.5046 100.015 96.5046C102.789 93.4534 100.087 90.674 98.917 89.4705C98.7795 89.329 98.6631 89.2093 98.5793 89.1135L98.0588 88.4973C97.2881 87.5324 96.5832 87.0484 95.2249 87.112L95.1034 87.1188C92.9586 87.2655 91.0673 86.3926 89.4182 85.1425C88.8965 84.7469 88.3867 84.3378 87.8769 83.9287C87.2457 83.4222 86.6146 82.9158 85.9612 82.4353C83.3968 80.5493 77.8526 79.9017 74.5 79.8458C71.1478 79.9017 65.6032 80.5493 63.0388 82.4353C62.3853 82.9158 61.7542 83.4222 61.1231 83.9288C60.6133 84.3378 60.1035 84.747 59.5818 85.1425C57.9327 86.3926 56.0414 87.2655 53.8966 87.1188L53.7751 87.112C52.4168 87.0484 51.7119 87.5324 50.9412 88.4973L50.4207 89.1135C50.3369 89.2093 50.2205 89.329 50.083 89.4705C48.9129 90.674 46.2108 93.4534 48.9846 96.5046C48.9846 96.5046 51.0456 100.182 50.9092 102.086C50.9041 102.23 50.8971 102.371 50.8902 102.511C50.8347 103.63 50.7862 104.606 51.8159 105.327C54.1335 106.951 57.2308 111.496 57.2308 111.496C57.9763 112.774 59.9099 113.267 60.9453 113.369C62.7723 113.549 66.4721 115.265 68.0749 116.008C68.4182 116.167 68.6653 116.281 68.7771 116.327C72.1319 117.684 76.3134 117.636 80.2229 116.327C80.3887 116.271 80.8386 116.079 81.4531 115.816C83.2422 115.05 86.4264 113.688 88.0547 113.369C89.0987 113.165 91.0635 112.141 91.8243 111.399C92.6251 110.619 93.2819 109.727 93.939 108.836C94.8791 107.56 95.82 106.283 97.1841 105.327C98.2142 104.606 98.1658 103.63 98.1102 102.51C98.1033 102.371 98.0963 102.23 98.0913 102.086ZM44.5447 89.8481C44.7231 89.1288 45.1474 88.4346 45.5892 87.8027C45.8214 87.4701 46.1382 87.1874 46.4557 86.9039C46.6271 86.751 46.7987 86.5978 46.9573 86.4366C49.4029 83.9477 49.4071 80.3596 46.9667 77.8682C46.7477 77.6449 46.5202 77.428 46.2928 77.2112C45.9732 76.9065 45.6537 76.6018 45.3578 76.2794C44.3711 75.2041 44.3895 73.629 45.3852 72.5613C45.6696 72.2563 45.9731 71.9661 46.2766 71.6759C46.5331 71.4307 46.7897 71.1855 47.0347 70.9312C48.9923 68.8999 49.3374 59.5499 47.8136 57.4051C47.654 57.1809 47.397 56.8564 47.1763 56.8504C45.8476 56.8156 44.5178 56.8193 43.188 56.823C42.7762 56.8241 42.3643 56.8253 41.9525 56.8253L41.8636 57.0086C42.426 57.5608 45.1243 65.4742 42.0325 70.1987C39.6516 72.6786 39.6417 76.1618 42.0107 78.6476C42.2577 78.9069 42.5186 79.1554 42.7795 79.4038C43.0854 79.6952 43.3914 79.9866 43.6748 80.2952C44.7962 81.5151 44.7975 82.7798 43.6791 83.9997C43.3397 84.3698 42.9723 84.7188 42.605 85.0677C42.4241 85.2395 42.2433 85.4112 42.0659 85.5855C40.9445 86.6873 40.3496 87.978 40.3008 89.4878C40.2597 90.7508 40.9594 91.642 42.1591 91.7707C43.3737 91.9012 44.23 91.1171 44.5447 89.8481ZM50.2386 30.8106C47.0788 30.8106 44.5174 33.125 44.5174 35.9797V43.176H104.483V35.9797C104.483 33.125 101.921 30.8106 98.7614 30.8106H50.2386ZM90.3565 117.01C89.8326 117.072 85.7247 117.632 84.519 118.42C83.6286 119.002 78.8795 121 74.3178 121C70.0884 121 65.3714 119.002 64.481 118.42C63.2753 117.632 59.1674 117.072 58.6435 117.01C56.8557 116.8 54.0835 114.383 54.0835 114.383C54.0414 114.328 53.9494 114.199 53.8171 114.014C52.9784 112.838 50.5196 109.39 48.8901 108.281C48.8608 108.261 48.8313 108.241 48.8017 108.221C47.5456 107.368 46.0046 106.321 46.3911 102.673C46.3911 102.673 46.8034 100.201 45.0092 98.37C44.5533 97.8555 44.2565 97.2224 43.9436 96.5548C43.7983 96.2449 43.6496 95.9276 43.4798 95.6113C43.312 95.6113 43.132 95.6191 42.9444 95.6273C42.5127 95.6462 42.041 95.6668 41.586 95.5972C38.357 95.1034 36.1967 92.6743 36.2339 89.6627C36.2643 87.1926 37.1398 85.0218 38.9296 83.1674L39.9364 82.1198C37.5508 80.0087 36.219 77.4985 36.2207 74.4298C36.2213 73.2473 36.8804 71.9979 37.5849 70.6625C38.3132 69.2819 39.09 67.8095 39.238 66.2238C39.3184 65.3629 39.8971 58.5568 35.2259 56.7212C35.2259 56.7212 30.3263 56.7903 28.2315 56.7033C22.6463 56.4713 18.0858 52.1059 18.0012 46.9973C17.9648 44.7477 19.6101 43.2122 22.0946 43.2088C23.9961 43.2063 40.2858 43.2062 40.2858 43.2062C40.3047 42.8187 40.3419 36.8368 40.3419 36.8368C40.4235 31.7098 43.9349 27.9345 49.4503 27.0604C49.9546 26.9799 99.0454 26.9799 99.5497 27.0604C105.065 27.9345 108.577 31.7098 108.659 36.8368C108.659 36.8368 108.695 42.8187 108.714 43.2062C108.714 43.2062 125.004 43.2063 126.905 43.2088C129.39 43.2122 131.035 44.7477 130.999 46.9973C130.914 52.1059 126.354 56.4713 120.769 56.7033C118.674 56.7903 113.774 56.7212 113.774 56.7212C109.103 58.5568 109.682 65.3629 109.762 66.2238C109.91 67.8095 110.687 69.282 111.415 70.6625C112.12 71.9979 112.779 73.2473 112.779 74.4298C112.781 77.4985 111.449 80.0087 109.064 82.1198L110.07 83.1674C111.86 85.0218 112.736 87.1926 112.767 89.6627C112.803 92.6743 110.643 95.1034 107.414 95.5972C106.959 95.6668 106.487 95.6462 106.056 95.6273C105.868 95.6191 105.688 95.6113 105.52 95.6113C105.354 95.9213 105.204 96.2296 105.058 96.5308C104.735 97.1987 104.428 97.8313 103.991 98.37C102.581 100.109 102.596 101.474 102.608 102.588C102.608 102.616 102.609 102.645 102.609 102.673C102.631 104.897 102.044 106.69 100.223 108.199C98.9428 109.26 94.7857 114.554 94.7857 114.554C93.7673 115.918 92.1447 116.8 90.3565 117.01ZM76.9107 85.007C77.9502 85.0012 78.9898 84.9954 80.0288 85.0209C81.2385 85.0508 81.9883 85.8339 81.9999 86.9782C82.0111 88.1327 81.2853 88.9568 80.067 88.9742C78.2115 89 76.3557 89.0036 74.5002 88.9973C72.6443 89.0036 70.7885 89 68.933 88.9742C67.7147 88.9568 66.9893 88.1327 67.0001 86.9782C67.0117 85.8339 67.7615 85.0508 68.9711 85.0209C70.0101 84.9954 71.0497 85.0012 72.0893 85.007C72.537 85.0095 72.9846 85.012 73.4323 85.012V85.004C73.7732 85.004 74.1141 85.0022 74.4555 85.0005L74.4567 85.0004V85C74.4712 85.0004 74.4857 85.0004 74.5002 85.0004L74.5433 85V85.0004L74.5445 85.0005C74.8859 85.0022 75.2268 85.004 75.5682 85.004V85.012C76.0156 85.012 76.4632 85.0095 76.9107 85.007Z" fill="white"/>
</g>
</g>
<defs>
<filter id="filter0_d_0_115" x="15.001" y="24" width="118.998" height="100" filterUnits="userSpaceOnUse" color-interpolation-filters="sRGB">
<feFlood flood-opacity="0" result="BackgroundImageFix"/>
<feColorMatrix in="SourceAlpha" type="matrix" values="0 0 0 0 0 0 0 0 0 0 0 0 0 0 0 0 0 0 127 0" result="hardAlpha"/>
<feOffset/>
<feGaussianBlur stdDeviation="1.5"/>
<feColorMatrix type="matrix" values="0 0 0 0 0 0 0 0 0 0 0 0 0 0 0 0 0 0 0.510462 0"/>
<feBlend mode="normal" in2="BackgroundImageFix" result="effect1_dropShadow_0_115"/>
<feBlend mode="normal" in="SourceGraphic" in2="effect1_dropShadow_0_115" result="shape"/>
</filter>
<clipPath id="clip0_0_115">
<rect width="148" height="148" fill="white"/>
</clipPath>
</defs>
</svg>
