<svg width="24" height="25" viewBox="0 0 24 25" fill="none" xmlns="http://www.w3.org/2000/svg">
<path fill-rule="evenodd" clip-rule="evenodd" d="M0.354541 9.13432C1.94607 2.70076 8.45086 -1.22104 14.8822 0.370955C21.3153 1.96222 25.2372 8.46621 23.6458 14.8987C22.0539 21.3311 15.5502 25.2546 9.11755 23.6623C2.68569 22.071 -1.23826 15.5667 0.354541 9.13432" fill="#24356A"/>
<path fill-rule="evenodd" clip-rule="evenodd" d="M20.5109 3.55761L15.6864 6.77375V0.599987C15.423 0.515334 15.1554 0.438399 14.8825 0.370884C12.619 -0.189417 10.3466 -0.0659324 8.28239 0.60886V6.77448L3.477 3.57128C2.37654 4.67997 1.48245 6.01431 0.874702 7.52578L2.14738 8.37413H0.570251C0.49107 8.62359 0.418634 8.87664 0.354766 9.13431C-0.209713 11.414 -0.0807017 13.7025 0.606956 15.7784H2.1788L0.919914 16.6177C1.5304 18.0848 2.42801 19.4224 3.56073 20.5455L8.28239 17.3984V23.4231C8.55579 23.5119 8.83423 23.5921 9.11784 23.6621C11.37 24.2198 13.6305 24.1003 15.6864 23.4345V17.3984L20.427 20.5581C21.5405 19.4616 22.4502 18.1379 23.0746 16.635L21.7895 15.7784H23.3928C23.4875 15.4907 23.5721 15.1973 23.6461 14.8987C24.1992 12.6627 24.0856 10.4181 23.4325 8.37413H21.8215L23.1189 7.50931C22.5205 6.036 21.6343 4.68994 20.5109 3.55761" fill="#F4F0ED"/>
<path fill-rule="evenodd" clip-rule="evenodd" d="M17.6132 15.7785L21.9789 18.6818C22.2779 18.2341 22.5485 17.763 22.7876 17.2706L20.5433 15.7784L17.6132 15.7785ZM23.8146 9.91614H14.1444V0.213155C12.6784 -0.0545379 11.2188 -0.042627 9.8242 0.215342V9.91614H0.188974C-0.0732424 11.3821 -0.0556196 12.8413 0.207265 14.2347H9.8242V23.8142C11.2899 24.086 12.7495 24.0777 14.1444 23.8236V14.2347H23.7902C24.0671 12.7703 24.0633 11.3113 23.8146 9.91614V9.91614ZM2.01495 18.6672C2.31515 19.1182 2.64621 19.549 3.00548 19.9567L8.28232 16.4473V15.7785H6.35887L2.01495 18.6672ZM21.9996 5.3878C21.7004 4.93579 21.37 4.50408 21.0115 4.09527L15.6864 7.63678V8.37422H17.5101L21.9996 5.3878ZM6.43671 8.37422L1.98201 5.41107C1.6857 5.86059 1.41735 6.33295 1.18102 6.8272L3.50645 8.37422H6.43671Z" fill="#E42A18"/>
<path fill-rule="evenodd" clip-rule="evenodd" d="M15.686 1.84888V1.84955V2.62704C15.7523 2.47955 15.7872 2.33966 15.7874 2.20851C15.7877 2.07993 15.7547 1.95948 15.686 1.84888" fill="#333A62"/>
</svg>
