<svg width="24" height="24" viewBox="0 0 24 24" fill="none" xmlns="http://www.w3.org/2000/svg">
<path fill-rule="evenodd" clip-rule="evenodd" d="M14.8824 0.354324C21.3154 1.94564 25.2372 8.44953 23.6459 14.882C22.0541 21.3143 15.5503 25.2379 9.11759 23.6456C2.68581 22.0544 -1.23828 15.55 0.354536 9.11776C1.94607 2.68424 8.4509 -1.2376 14.8824 0.354324Z" fill="#EAF5FF"/>
<mask id="mask0_0_229" style="mask-type:luminance" maskUnits="userSpaceOnUse" x="0" y="0" width="24" height="24">
<path fill-rule="evenodd" clip-rule="evenodd" d="M14.8824 0.354324C21.3154 1.94564 25.2372 8.44953 23.6459 14.882C22.0541 21.3143 15.5503 25.2379 9.11759 23.6456C2.68581 22.0544 -1.23828 15.55 0.354536 9.11776C1.94607 2.68424 8.4509 -1.2376 14.8824 0.354324Z" fill="white"/>
</mask>
<g mask="url(#mask0_0_229)">
<rect x="-4" y="-3" width="31" height="6" fill="#1437B1"/>
<rect x="-4" y="21" width="31" height="6" fill="#1437B1"/>
<path fill-rule="evenodd" clip-rule="evenodd" d="M16.6739 11.9973L18.9973 8.02263H14.3505L12.0001 4L9.64949 8.02263H5L5.59685 9.04015L7.32612 12L5 15.9775H6.19371H9.64949L12.0001 20L14.3505 15.9775H19L16.6739 11.9973ZM12.0001 6.72062L12.7611 8.02263H11.2389L12.0001 6.72062ZM7.38513 14.617L8.11952 13.3603L8.85604 14.617H7.38513ZM8.11952 10.637L7.38513 9.38017H8.85604L8.11952 10.637ZM12.0001 17.2792L11.2389 15.9775H12.7611L12.0001 17.2792ZM13.5544 14.617H10.4456L8.91546 12L10.4456 9.38017H13.5544L15.0845 12L13.5544 14.617ZM15.1436 14.617L15.8806 13.3603L16.6147 14.617H15.1436ZM15.8806 10.6397L15.1436 9.38017H16.6147L15.8806 10.6397Z" fill="#1437B1"/>
</g>
</svg>
