<svg width="24" height="24" viewBox="0 0 24 24" fill="none" xmlns="http://www.w3.org/2000/svg">
<path fill-rule="evenodd" clip-rule="evenodd" d="M14.8824 0.354324C21.3154 1.94564 25.2372 8.44953 23.6459 14.882C22.0541 21.3143 15.5503 25.2379 9.11759 23.6456C2.68581 22.0544 -1.23828 15.55 0.354536 9.11776C1.94607 2.68424 8.4509 -1.2376 14.8824 0.354324Z" fill="#CBE7FF"/>
<path fill-rule="evenodd" clip-rule="evenodd" d="M17.4724 11.8498L20.1928 7.13922H14.752L11.9999 2.37183L9.24769 7.13922H3.80371L4.50255 8.34514L6.52731 11.853L3.80371 16.5669H5.2014H9.24769L11.9999 21.3341L14.752 16.5669H20.196L17.4724 11.8498ZM11.9999 5.59615L12.891 7.13922H11.1087L11.9999 5.59615ZM6.59641 14.9545L7.45629 13.4651L8.31866 14.9545H6.59641ZM7.45629 10.2376L6.59641 8.7481H8.31866L7.45629 10.2376ZM11.9999 18.1096L11.1087 16.5669H12.891L11.9999 18.1096ZM13.8199 14.9545H10.1798L8.38824 11.853L10.1798 8.7481H13.8199L15.6114 11.853L13.8199 14.9545ZM15.6806 14.9545L16.5436 13.4651L17.4031 14.9545H15.6806ZM16.5436 10.2409L15.6806 8.7481H17.4031L16.5436 10.2409Z" fill="#008FCA"/>
</svg>
