<svg width="24" height="25" viewBox="0 0 24 25" fill="none" xmlns="http://www.w3.org/2000/svg">
<path fill-rule="evenodd" clip-rule="evenodd" d="M0.354542 9.13435C1.94595 2.70082 8.45083 -1.22096 14.8823 0.370906C21.3154 1.96223 25.2373 8.46624 23.6459 14.8986C22.054 21.331 15.5502 25.2545 9.11752 23.6622C2.68569 22.071 -1.23827 15.5666 0.354542 9.13435" fill="#9A1A17"/>
<path fill-rule="evenodd" clip-rule="evenodd" d="M23.7407 14.4832C23.7461 14.4577 23.7514 14.4321 23.7565 14.4065C23.7657 14.3619 23.7745 14.3173 23.783 14.2728C23.7881 14.2469 23.7931 14.2211 23.7977 14.1952C23.8064 14.1491 23.8145 14.1029 23.8226 14.0568C23.8265 14.0335 23.8307 14.0103 23.8347 13.9869C23.8443 13.9293 23.8535 13.8716 23.8623 13.814C23.864 13.8027 23.866 13.7913 23.8676 13.7798C23.878 13.7105 23.8877 13.6413 23.8968 13.5721C23.8993 13.5536 23.9014 13.5353 23.9038 13.5169C23.9102 13.4661 23.9165 13.4153 23.9222 13.3645C23.9249 13.3403 23.9275 13.3162 23.9301 13.292C23.9351 13.2464 23.9398 13.2009 23.9442 13.1554C23.9467 13.1303 23.949 13.1052 23.9512 13.08C23.9555 13.0339 23.9594 12.9881 23.9628 12.9421C23.9645 12.9187 23.9665 12.8953 23.9682 12.872C23.9721 12.8191 23.9755 12.7663 23.9786 12.7136C23.9795 12.6975 23.9806 12.6815 23.9815 12.6655C23.9853 12.5962 23.9886 12.5269 23.9912 12.4577C23.9916 12.4465 23.9919 12.4352 23.9923 12.424C23.9943 12.3666 23.9959 12.3092 23.9971 12.252C23.9975 12.2303 23.9978 12.2085 23.9981 12.1867C23.9988 12.1395 23.9992 12.0922 23.9994 12.0451V11.9737C23.9992 11.9276 23.9988 11.8813 23.9981 11.8351C23.9978 11.8123 23.9975 11.7894 23.9969 11.7666C23.996 11.716 23.9946 11.6653 23.9929 11.6147C23.9924 11.5972 23.9919 11.5796 23.9912 11.5621C23.986 11.4249 23.9786 11.288 23.9687 11.1515C23.9674 11.1335 23.9659 11.1156 23.9644 11.0977C23.9606 11.0477 23.9566 10.9978 23.9521 10.9479C23.9502 10.9262 23.9481 10.9044 23.9461 10.8827C23.9417 10.8357 23.9369 10.7887 23.9318 10.7417C23.9295 10.7202 23.9272 10.6987 23.9249 10.6772C23.9192 10.6274 23.9131 10.5776 23.907 10.5278C23.9047 10.5104 23.9027 10.4929 23.9004 10.4755C23.8827 10.3395 23.8629 10.204 23.8407 10.0691C23.8386 10.057 23.8364 10.045 23.8344 10.0328C23.8253 9.97818 23.8157 9.92379 23.8058 9.86934C23.8025 9.85081 23.7989 9.83227 23.7954 9.81374C23.7862 9.76494 23.7769 9.71633 23.7672 9.66777C23.7633 9.64857 23.7594 9.62924 23.7554 9.60998C23.7451 9.56021 23.7345 9.5105 23.7237 9.46079C23.7201 9.44426 23.7167 9.42773 23.7129 9.4112C23.6993 9.35031 23.6852 9.2896 23.6707 9.22907L23.6675 9.2154C23.6522 9.1519 23.6364 9.08845 23.6202 9.02525H23.62C23.5291 8.6737 23.4225 8.32701 23.3008 7.98657H0.699579C0.567103 8.35946 0.451521 8.74218 0.354534 9.13445C-0.0441095 10.7444 -0.0964922 12.3587 0.149014 13.8994C0.150108 13.9063 0.151141 13.9131 0.152295 13.92C0.161289 13.9762 0.170708 14.0323 0.180674 14.0885C0.18274 14.1003 0.184867 14.1121 0.186994 14.1239C0.196292 14.1765 0.206015 14.2289 0.216102 14.2812C0.219019 14.2967 0.222179 14.3123 0.225279 14.3278C0.235002 14.3772 0.244968 14.4267 0.255238 14.4759C0.259127 14.4945 0.26332 14.5131 0.267209 14.5317C0.277297 14.5785 0.287384 14.625 0.29808 14.6716C0.302941 14.6934 0.308167 14.7151 0.313332 14.7368C0.323542 14.7805 0.333629 14.8242 0.344264 14.8677C0.352407 14.9006 0.360914 14.9334 0.369301 14.9663C0.381819 15.0155 0.39458 15.0647 0.407706 15.1138C0.420711 15.1622 0.433715 15.2107 0.447328 15.2589C0.453283 15.2801 0.459603 15.3013 0.465741 15.3226C0.478867 15.3683 0.492175 15.4142 0.505787 15.4598C0.512229 15.4811 0.518913 15.5024 0.525476 15.5237C0.539453 15.5692 0.553551 15.6146 0.567893 15.6599C0.574699 15.6808 0.581444 15.7017 0.588372 15.7226C0.603139 15.7682 0.618209 15.8137 0.633584 15.859C0.640512 15.8794 0.647621 15.9 0.654549 15.9203C0.670288 15.966 0.686392 16.0116 0.702739 16.0571C0.706446 16.0676 0.710092 16.0784 0.71392 16.089H0.714224C0.724433 16.1172 0.734217 16.1455 0.744791 16.1734H23.2544C23.2646 16.1455 23.274 16.1171 23.2841 16.089H23.2858C23.311 16.0188 23.335 15.9479 23.359 15.8769C23.3613 15.8699 23.3638 15.8631 23.3661 15.8562C23.3973 15.7635 23.4272 15.6704 23.4565 15.5766C23.4604 15.5635 23.4648 15.5505 23.4688 15.5375C23.4956 15.4498 23.5212 15.3615 23.5461 15.2729C23.5515 15.2543 23.5571 15.2359 23.5622 15.2173C23.5914 15.1117 23.6195 15.0057 23.6459 14.8987C23.6629 14.8297 23.6793 14.7606 23.6951 14.6915C23.7001 14.6696 23.7049 14.6473 23.7099 14.6252C23.7204 14.5778 23.7309 14.5305 23.7407 14.4832" fill="#F5F5F5"/>
</svg>
