<svg width="27" height="27" viewBox="0 0 27 27" fill="none" xmlns="http://www.w3.org/2000/svg">
<path d="M20.3645 18.5614C19.8666 18.0635 19.0593 18.0635 18.5614 18.5614C18.0635 19.0593 18.0635 19.8666 18.5614 20.3645L20.3645 18.5614ZM24.0984 25.9016C24.5964 26.3995 25.4036 26.3995 25.9016 25.9016C26.3995 25.4036 26.3995 24.5964 25.9016 24.0984L24.0984 25.9016ZM18.5614 20.3645L24.0984 25.9016L25.9016 24.0984L20.3645 18.5614L18.5614 20.3645ZM20.3176 11.7963C20.3176 16.5024 16.5024 20.3176 11.7963 20.3176V22.8676C17.9108 22.8676 22.8676 17.9108 22.8676 11.7963H20.3176ZM11.7963 20.3176C7.09011 20.3176 3.275 16.5024 3.275 11.7963H0.725C0.725 17.9108 5.68178 22.8676 11.7963 22.8676V20.3176ZM3.275 11.7963C3.275 7.09011 7.09011 3.275 11.7963 3.275V0.725C5.68178 0.725 0.725 5.68178 0.725 11.7963H3.275ZM11.7963 3.275C16.5024 3.275 20.3176 7.09011 20.3176 11.7963H22.8676C22.8676 5.68178 17.9108 0.725 11.7963 0.725V3.275Z" fill="#606266"/>
</svg>
