<svg width="265" height="221" viewBox="0 0 265 221" fill="none" xmlns="http://www.w3.org/2000/svg">
<path fill-rule="evenodd" clip-rule="evenodd" d="M237.462 61.0624C245.364 61.0624 251.099 57.444 253.446 50.9456C253.726 50.1701 253.901 49.3602 254.095 48.4605C254.192 48.0139 254.293 47.5452 254.414 47.0476H10.0094C10.1296 47.5428 10.2301 48.0094 10.3259 48.454C10.5203 49.3563 10.6952 50.1683 10.9761 50.9456C13.323 57.444 19.0596 61.0624 26.9609 61.0624H237.462ZM206.85 136.468C205.99 135.646 205.129 134.825 204.334 133.954C201.716 131.088 201.719 128.115 204.343 125.249C205.006 124.523 205.722 123.839 206.438 123.154C207.048 122.57 207.659 121.986 208.237 121.377C213.781 115.535 213.757 107.349 208.186 101.521C200.951 90.4179 207.266 71.8206 208.581 70.5229L208.373 70.092C207.409 70.092 206.446 70.0893 205.482 70.0866C202.37 70.0779 199.259 70.0693 196.149 70.1511C195.634 70.1652 195.031 70.9277 194.658 71.4548C191.092 76.4952 191.9 98.4684 196.481 103.242C197.054 103.84 197.654 104.416 198.255 104.992C198.965 105.674 199.675 106.356 200.341 107.073C202.671 109.582 202.714 113.284 200.405 115.811C199.714 116.567 198.968 117.282 198.221 117.997C197.688 118.507 197.154 119.018 196.641 119.545C190.93 125.4 190.94 133.832 196.662 139.681C197.033 140.061 197.435 140.421 197.837 140.781C198.579 141.446 199.321 142.111 199.864 142.892C200.897 144.377 201.89 146.008 202.307 147.699C203.044 150.681 205.047 152.524 207.89 152.217C210.698 151.914 212.334 149.82 212.239 146.852C212.124 143.304 210.732 140.27 208.108 137.681C207.694 137.273 207.272 136.87 206.85 136.468ZM90.6529 97.2008L81.0983 97.1367C79.9173 102.816 77.8276 107.961 74.7151 110.946L74.6081 111.051C73.7304 111.953 75.1265 113.638 75.1265 113.638C79.7131 118.153 82.1981 123.507 82.2652 129.813C82.2652 129.813 83.1239 133.812 86.8048 132.474C86.8048 132.474 92.7536 129.024 95.1245 126.727C102.281 120.523 110.629 116.864 120.405 116.023C121.357 115.94 143.065 115.94 144.018 116.023C153.793 116.864 162.242 120.408 169.298 126.727C174.569 131.446 180.066 133.27 180.749 133.2C181.798 133.092 182.157 129.813 182.157 129.813C182.224 123.507 184.709 118.153 189.296 113.638C189.296 113.638 190.693 111.953 189.814 111.051L189.708 110.946C186.596 107.961 184.505 102.816 183.324 97.1367L173.77 97.2008C172.337 97.1738 171.701 97.78 171.174 98.9975L171.109 99.1528C167.951 106.875 161.698 111.282 154.205 111.195C146.866 111.109 140.612 106.754 137.668 99.4745C137.668 99.4745 137.289 97.0425 134.625 97.2048C133.639 97.266 130.784 97.2389 129.798 97.2048C127.447 97.1257 126.755 99.4745 126.755 99.4745C123.81 106.754 117.556 111.109 110.218 111.195C102.725 111.282 96.4716 106.875 93.313 99.1528L93.248 98.9975C92.7216 97.78 92.085 97.1738 90.6529 97.2008ZM110.089 103.149C115.617 103.149 120.097 98.6628 120.097 93.1284C120.097 87.594 115.617 83.1078 110.089 83.1078C104.562 83.1078 100.081 87.594 100.081 93.1284C100.081 98.6628 104.562 103.149 110.089 103.149ZM154.334 103.149C159.861 103.149 164.342 98.6628 164.342 93.1284C164.342 87.594 159.861 83.1078 154.334 83.1078C148.806 83.1078 144.326 87.594 144.326 93.1284C144.326 98.6628 148.806 103.149 154.334 103.149ZM173.617 89.0921C173.853 89.0721 177.581 89.0581 181.886 89.049C181.556 83.8694 183.283 71.3406 183.357 71.0831H81.0662C81.1393 71.3406 82.8667 83.8694 82.5364 89.049C86.8418 89.0581 90.5698 89.0721 90.805 89.0921L90.9211 89.1012C91.971 89.1793 92.9688 89.0811 93.5092 87.583C94.9043 83.7131 97.3092 80.5536 100.935 78.3801C110.684 72.534 122.935 76.4301 127.219 86.8034C127.219 86.8034 128.572 89.0991 130.329 89.1182C131.09 89.1272 133.332 89.1272 134.094 89.1182C135.85 89.0991 137.203 86.8034 137.203 86.8034C141.488 76.4301 153.738 72.534 163.487 78.3801C167.113 80.5536 169.518 83.7131 170.913 87.583C171.454 89.0811 172.451 89.1793 173.501 89.1012L173.617 89.0921ZM187.415 176.46C187.606 167.91 191.918 163.342 191.918 163.342C198.409 156.171 192.086 149.64 189.348 146.811C189.026 146.479 188.753 146.197 188.557 145.972L187.339 144.524C185.536 142.257 183.887 141.119 180.708 141.269L180.424 141.285C175.405 141.629 170.979 139.578 167.12 136.64C165.899 135.711 164.706 134.749 163.514 133.788C162.037 132.597 160.56 131.407 159.031 130.278C153.03 125.846 140.056 124.324 132.211 124.192C124.367 124.324 111.393 125.846 105.392 130.278C103.863 131.407 102.386 132.597 100.909 133.788C99.7159 134.749 98.5229 135.711 97.3022 136.64C93.4431 139.578 89.0176 141.629 83.9986 141.285L83.7144 141.269C80.5358 141.119 78.8865 142.257 77.083 144.524L75.8651 145.972C75.6689 146.197 75.3966 146.479 75.0747 146.811C72.3367 149.64 66.0137 156.171 72.5044 163.342C72.5044 163.342 77.3272 171.985 77.008 176.46C76.9961 176.797 76.9797 177.129 76.9636 177.457C76.8336 180.086 76.7203 182.381 79.1297 184.077C84.553 187.891 91.8008 198.573 91.8008 198.573C93.5452 201.577 98.0698 202.735 100.493 202.976C104.768 203.399 113.426 207.43 117.176 209.176C117.98 209.55 118.558 209.819 118.819 209.926C126.67 213.114 136.455 213.003 145.603 209.926C145.991 209.795 147.044 209.343 148.482 208.725C152.668 206.926 160.119 203.724 163.93 202.976C166.373 202.496 170.97 200.089 172.751 198.346C174.624 196.511 176.161 194.416 177.699 192.321C179.899 189.323 182.1 186.322 185.293 184.077C187.703 182.381 187.59 180.086 187.46 177.456C187.444 177.129 187.427 176.797 187.415 176.46ZM62.1151 147.699C62.5324 146.008 63.5252 144.377 64.559 142.892C65.1024 142.11 65.8438 141.446 66.5869 140.78C66.9879 140.42 67.3894 140.06 67.7606 139.681C73.4832 133.832 73.4932 125.4 67.7826 119.545C67.27 119.02 66.7378 118.51 66.2056 118.001C65.4577 117.285 64.71 116.569 64.0176 115.811C61.7087 113.284 61.7518 109.582 64.0816 107.073C64.7472 106.356 65.4574 105.674 66.1677 104.992C66.768 104.416 67.3683 103.84 67.9417 103.242C72.5224 98.4684 73.33 76.4952 69.7642 71.4548C69.3909 70.9277 68.7894 70.1652 68.273 70.1511C65.1637 70.0693 62.052 70.0779 58.9403 70.0866C57.9766 70.0893 57.0129 70.092 56.0492 70.092L55.841 70.5229C57.1571 71.8206 63.4711 90.4179 56.2364 101.521C50.6649 107.349 50.6419 115.535 56.1853 121.377C56.7634 121.986 57.3739 122.57 57.9844 123.154C58.7003 123.839 59.4161 124.523 60.0794 125.249C62.7035 128.115 62.7065 131.088 60.0894 133.954C59.2953 134.824 58.4355 135.644 57.5758 136.464C57.1527 136.868 56.7296 137.272 56.3144 137.681C53.6903 140.27 52.2982 143.304 52.1841 146.852C52.088 149.82 53.7253 151.914 56.5326 152.217C59.3749 152.524 61.3785 150.681 62.1151 147.699ZM75.4387 8.95518C68.0448 8.95518 62.051 14.3944 62.051 21.1032V38.015H202.372V21.1032C202.372 14.3944 196.377 8.95518 188.984 8.95518H75.4387ZM169.316 211.532C168.09 211.677 158.477 212.994 155.656 214.845C153.572 216.213 142.459 220.908 131.785 220.908C121.888 220.908 110.85 216.213 108.766 214.845C105.945 212.994 96.3324 211.677 95.1065 211.532C90.9231 211.037 84.4359 205.357 84.4359 205.357C84.3375 205.23 84.1222 204.927 83.8127 204.491C81.85 201.727 76.0963 193.625 72.2832 191.018C72.2147 190.971 72.1457 190.924 72.0764 190.877C69.1372 188.872 65.5311 186.413 66.4355 177.839C66.4355 177.839 67.4003 172.03 63.2019 167.726C62.135 166.517 61.4405 165.029 60.7083 163.46C60.3684 162.732 60.0203 161.986 59.6231 161.243C59.2303 161.243 58.8091 161.261 58.3702 161.28C57.3599 161.325 56.2563 161.373 55.1915 161.21C47.6355 160.049 42.5804 154.34 42.6675 147.263C42.7386 141.458 44.7872 136.356 48.9755 131.998L51.3314 129.536C45.749 124.575 42.6325 118.676 42.6365 111.464C42.6379 108.685 44.1802 105.749 45.8288 102.611C47.533 99.3664 49.3507 95.9059 49.6971 92.1795C49.8853 90.1563 51.2394 74.1614 40.3086 69.8475C40.3086 69.8475 28.8434 70.0098 23.9415 69.8054C10.8721 69.2603 0.200517 59.0012 0.00235828 46.9955C-0.0827098 41.7086 3.76737 38.1002 9.58102 38.0921C14.0306 38.0861 52.1491 38.0861 52.1491 38.0861C52.1931 37.1753 52.2802 23.1173 52.2802 23.1173C52.4713 11.0685 60.6879 2.19627 73.5942 0.142042C74.7742 -0.0473474 189.648 -0.0473474 190.828 0.142042C203.734 2.19627 211.952 11.0685 212.143 23.1173C212.143 23.1173 212.229 37.1753 212.273 38.0861C212.273 38.0861 250.392 38.0861 254.841 38.0921C260.655 38.1002 264.505 41.7086 264.42 46.9955C264.222 59.0012 253.55 69.2603 240.481 69.8054C235.579 70.0098 224.114 69.8475 224.114 69.8475C213.183 74.1614 214.537 90.1563 214.725 92.1795C215.072 95.9059 216.889 99.3664 218.594 102.611C220.242 105.749 221.784 108.685 221.786 111.464C221.79 118.676 218.673 124.575 213.091 129.536L215.447 131.998C219.635 136.356 221.685 141.458 221.756 147.263C221.842 154.34 216.787 160.049 209.231 161.21C208.166 161.373 207.062 161.325 206.052 161.28C205.613 161.261 205.192 161.243 204.799 161.243C204.41 161.971 204.06 162.696 203.718 163.403C202.961 164.973 202.243 166.46 201.221 167.726C197.923 171.813 197.957 175.02 197.985 177.638C197.985 177.705 197.986 177.772 197.987 177.839C198.038 183.066 196.664 187.278 192.403 190.825C189.408 193.319 179.68 205.76 179.68 205.76C177.297 208.966 173.5 211.037 169.316 211.532ZM138.035 137.244C140.546 137.231 143.058 137.218 145.568 137.276C148.491 137.343 150.302 139.104 150.33 141.679C150.357 144.276 148.604 146.13 145.66 146.169C141.178 146.227 136.694 146.235 132.212 146.221C127.728 146.235 123.244 146.227 118.762 146.169C115.819 146.13 114.066 144.276 114.092 141.679C114.12 139.104 115.932 137.343 118.854 137.276C121.364 137.218 123.876 137.231 126.388 137.244C127.469 137.25 128.55 137.256 129.632 137.256V137.238C130.452 137.238 131.273 137.234 132.094 137.23L132.107 137.23V137.229C132.142 137.23 132.177 137.23 132.212 137.23L132.316 137.229V137.23L132.328 137.23C133.15 137.234 133.97 137.238 134.792 137.238V137.256C135.873 137.256 136.954 137.25 138.035 137.244Z" fill="url(#paint0_linear_0_160)"/>
<defs>
<linearGradient id="paint0_linear_0_160" x1="264.421" y1="220.908" x2="264.421" y2="0" gradientUnits="userSpaceOnUse">
<stop stop-color="#919196"/>
<stop offset="0.532179" stop-color="#B5B5BA"/>
<stop offset="1" stop-color="#E5E5EA"/>
</linearGradient>
</defs>
</svg>
