<svg width="61" height="51" viewBox="0 0 61 51" fill="none" xmlns="http://www.w3.org/2000/svg">
<path fill-rule="evenodd" clip-rule="evenodd" d="M54.7802 14.0972C56.603 14.0972 57.9261 13.2618 58.4675 11.7616C58.5322 11.5825 58.5725 11.3955 58.6173 11.1878C58.6395 11.0847 58.6628 10.9765 58.6908 10.8616H2.30884C2.33659 10.976 2.35978 11.0837 2.38187 11.1863C2.42672 11.3946 2.46707 11.5821 2.53187 11.7616C3.07327 13.2618 4.39665 14.0972 6.21942 14.0972H54.7802ZM47.7182 31.5056C47.5197 31.316 47.3212 31.1264 47.1377 30.9254C46.5338 30.2635 46.5345 29.5774 47.1398 28.9155C47.2929 28.7481 47.458 28.59 47.6231 28.4319C47.764 28.2971 47.9048 28.1622 48.0382 28.0216C49.3172 26.6729 49.3117 24.783 48.0264 23.4376C46.3574 20.8743 47.8142 16.5808 48.1176 16.2813L48.0696 16.1818C47.8473 16.1818 47.625 16.1812 47.4026 16.1805C46.6848 16.1785 45.9669 16.1765 45.2496 16.1954C45.1307 16.1987 44.9918 16.3747 44.9056 16.4964C44.083 17.6601 44.2694 22.7329 45.3261 23.835C45.4584 23.973 45.5968 24.106 45.7353 24.2391C45.8992 24.3965 46.063 24.5539 46.2166 24.7194C46.754 25.2987 46.764 26.1533 46.2313 26.7367C46.0719 26.9113 45.8998 27.0762 45.7277 27.2412C45.6046 27.3592 45.4815 27.4772 45.363 27.5987C44.0456 28.9504 44.0479 30.8972 45.3679 32.2475C45.4535 32.3351 45.5463 32.4182 45.6389 32.5013C45.8102 32.655 45.9812 32.8083 46.1067 32.9887C46.3449 33.3316 46.574 33.7082 46.6702 34.0985C46.8402 34.7869 47.3024 35.2124 47.9581 35.1416C48.6059 35.0717 48.9834 34.5882 48.9614 33.903C48.9349 33.0838 48.6137 32.3835 48.0084 31.7857C47.9128 31.6914 47.8155 31.5985 47.7182 31.5056ZM20.9126 22.4403L18.7084 22.4254C18.436 23.7367 17.9539 24.9244 17.2359 25.6136L17.2112 25.6379C17.0087 25.8461 17.3308 26.2349 17.3308 26.2349C18.3889 27.2774 18.9621 28.5134 18.9776 29.9692C18.9776 29.9692 19.1757 30.8925 20.0249 30.5837C20.0249 30.5837 21.3972 29.7872 21.9441 29.2567C23.5951 27.8245 25.5209 26.9799 27.7761 26.7855C27.9958 26.7666 33.0035 26.7666 33.2233 26.7855C35.4785 26.9799 37.4276 27.7979 39.0553 29.2567C40.2713 30.3463 41.5395 30.7674 41.6969 30.7512C41.9389 30.7262 42.0218 29.9692 42.0218 29.9692C42.0372 28.5134 42.6105 27.2774 43.6686 26.2349C43.6686 26.2349 43.9909 25.8461 43.7882 25.6379L43.7637 25.6136C43.0457 24.9244 42.5634 23.7367 42.291 22.4254L40.087 22.4403C39.7564 22.434 39.6096 22.574 39.4881 22.855L39.4731 22.8909C38.7445 24.6736 37.302 25.6911 35.5734 25.6709C33.8804 25.6513 32.4377 24.6459 31.7584 22.9652C31.7584 22.9652 31.6712 22.4037 31.0566 22.4412C30.8292 22.4553 30.1705 22.449 29.9431 22.4412C29.4007 22.4229 29.241 22.9652 29.241 22.9652C28.5617 24.6459 27.119 25.6513 25.426 25.6709C23.6974 25.6911 22.2549 24.6736 21.5262 22.8909L21.5112 22.855C21.3898 22.574 21.243 22.434 20.9126 22.4403ZM25.3964 23.8135C26.6715 23.8135 27.7052 22.7778 27.7052 21.5001C27.7052 20.2224 26.6715 19.1867 25.3964 19.1867C24.1213 19.1867 23.0877 20.2224 23.0877 21.5001C23.0877 22.7778 24.1213 23.8135 25.3964 23.8135ZM35.6032 23.8135C36.8783 23.8135 37.912 22.7778 37.912 21.5001C37.912 20.2224 36.8783 19.1867 35.6032 19.1867C34.3281 19.1867 33.2944 20.2224 33.2944 21.5001C33.2944 22.7778 34.3281 23.8135 35.6032 23.8135ZM40.0517 20.5682C40.1062 20.5636 40.9662 20.5604 41.9592 20.5583C41.883 19.3625 42.2815 16.47 42.2986 16.4106H18.701C18.7179 16.47 19.1164 19.3625 19.0402 20.5583C20.0334 20.5604 20.8934 20.5636 20.9477 20.5682L20.9745 20.5703C21.2166 20.5884 21.4468 20.5657 21.5715 20.2198C21.8933 19.3264 22.4481 18.597 23.2846 18.0952C25.5336 16.7456 28.3597 17.645 29.3481 20.0399C29.3481 20.0399 29.6602 20.5699 30.0654 20.5743C30.2411 20.5763 30.7583 20.5763 30.934 20.5743C31.3392 20.5699 31.6513 20.0399 31.6513 20.0399C32.6397 17.645 35.4658 16.7456 37.7148 18.0952C38.5513 18.597 39.106 19.3264 39.4279 20.2198C39.5526 20.5657 39.7827 20.5884 40.0249 20.5703L40.0517 20.5682ZM43.2348 40.7384C43.2789 38.7646 44.2735 37.7099 44.2735 37.7099C45.7709 36.0545 44.3122 34.5465 43.6806 33.8936C43.6063 33.8168 43.5435 33.7518 43.4982 33.6999L43.2172 33.3656C42.8012 32.842 42.4207 32.5795 41.6875 32.6139L41.6219 32.6176C40.4641 32.6972 39.4431 32.2237 38.5529 31.5454C38.2713 31.3308 37.9961 31.1088 37.7209 30.8869C37.3802 30.6121 37.0395 30.3373 36.6867 30.0766C35.3024 29.0534 32.3095 28.702 30.4997 28.6717C28.6901 28.702 25.697 29.0534 24.3127 30.0766C23.9599 30.3373 23.6192 30.6121 23.2785 30.8869C23.0033 31.1088 22.7281 31.3308 22.4465 31.5454C21.5563 32.2237 20.5353 32.6972 19.3775 32.6176L19.3119 32.6139C18.5787 32.5795 18.1982 32.842 17.7821 33.3656L17.5012 33.6999C17.4559 33.7518 17.3931 33.8168 17.3188 33.8936C16.6872 34.5465 15.2285 36.0545 16.7259 37.7099C16.7259 37.7099 17.8385 39.7052 17.7648 40.7384C17.7621 40.8162 17.7583 40.893 17.7546 40.9685C17.7246 41.5756 17.6985 42.1053 18.2543 42.4968C19.5054 43.3775 21.1774 45.8436 21.1774 45.8436C21.5798 46.537 22.6236 46.8044 23.1825 46.8599C24.1688 46.9577 26.1661 47.8883 27.0312 48.2914C27.2166 48.3778 27.35 48.4399 27.4103 48.4645C29.2213 49.2006 31.4786 49.1749 33.589 48.4645C33.6785 48.4343 33.9214 48.3299 34.2531 48.1872C35.2189 47.7719 36.9378 47.0326 37.8168 46.8599C38.3804 46.7491 39.441 46.1934 39.8518 45.7911C40.284 45.3675 40.6386 44.8839 40.9933 44.4001C41.5008 43.7079 42.0087 43.0152 42.7451 42.4968C43.3012 42.1053 43.275 41.5756 43.245 40.9684C43.2413 40.8929 43.2375 40.8162 43.2348 40.7384ZM14.3292 34.0985C14.4254 33.7082 14.6545 33.3316 14.893 32.9887C15.0183 32.8083 15.1893 32.6549 15.3608 32.5011C15.4533 32.4181 15.5459 32.335 15.6315 32.2475C16.9517 30.8972 16.954 28.9504 15.6366 27.5987C15.5184 27.4775 15.3956 27.3599 15.2728 27.2422C15.1003 27.0769 14.9278 26.9116 14.7681 26.7367C14.2354 26.1533 14.2453 25.2987 14.7828 24.7194C14.9364 24.5539 15.1002 24.3965 15.2641 24.2391C15.4025 24.106 15.541 23.973 15.6733 23.835C16.73 22.7329 16.9163 17.6601 16.0937 16.4964C16.0076 16.3747 15.8689 16.1987 15.7497 16.1954C15.0324 16.1765 14.3146 16.1785 13.5967 16.1805C13.3744 16.1812 13.1521 16.1818 12.9298 16.1818L12.8818 16.2813C13.1854 16.5808 14.642 20.8743 12.973 23.4376C11.6877 24.783 11.6824 26.6729 12.9612 28.0216C13.0946 28.1622 13.2354 28.2971 13.3763 28.4319C13.5414 28.59 13.7065 28.7481 13.8596 28.9155C14.4649 29.5774 14.4656 30.2635 13.8619 30.9254C13.6787 31.1262 13.4803 31.3155 13.282 31.5048C13.1844 31.598 13.0868 31.6912 12.991 31.7857C12.3856 32.3835 12.0645 33.0838 12.0382 33.903C12.016 34.5882 12.3937 35.0717 13.0413 35.1416C13.697 35.2124 14.1592 34.7869 14.3292 34.0985ZM17.4028 2.06744C15.6971 2.06744 14.3144 3.32316 14.3144 4.87198V8.77633H46.6852V4.87198C46.6852 3.32316 45.3023 2.06744 43.5966 2.06744H17.4028ZM39.0594 48.8353C38.7766 48.8689 36.559 49.1729 35.9082 49.6002C35.4275 49.9159 32.8639 51 30.4013 51C28.1182 51 25.5719 49.9159 25.0912 49.6002C24.4404 49.1729 22.2228 48.8689 21.94 48.8353C20.9749 48.7211 19.4784 47.4098 19.4784 47.4098C19.4557 47.3803 19.406 47.3103 19.3346 47.2097C18.8818 46.5717 17.5545 44.7012 16.6749 44.0993C16.659 44.0885 16.6431 44.0777 16.6271 44.0667C15.9491 43.6039 15.1172 43.0361 15.3258 41.0567C15.3258 41.0567 15.5484 39.7156 14.5799 38.722C14.3338 38.4429 14.1736 38.0994 14.0046 37.7372C13.9262 37.569 13.8459 37.3969 13.7543 37.2253C13.6637 37.2253 13.5665 37.2295 13.4653 37.234C13.2322 37.2442 12.9776 37.2554 12.732 37.2176C10.9888 36.9497 9.8227 35.6318 9.84278 33.9978C9.85917 32.6577 10.3318 31.4799 11.298 30.4738L11.8415 29.9054C10.5536 28.76 9.8347 27.3981 9.83562 25.7332C9.83596 25.0916 10.1918 24.4138 10.5721 23.6892C10.9652 22.9402 11.3845 22.1413 11.4645 21.281C11.5079 20.8139 11.8202 17.1213 9.29861 16.1253C9.29861 16.1253 6.65369 16.1628 5.52287 16.1156C2.50786 15.9898 0.0460321 13.6213 0.00031875 10.8496C-0.0193057 9.62905 0.868873 8.79599 2.21003 8.79414C3.2365 8.79275 12.0301 8.79275 12.0301 8.79275C12.0403 8.58246 12.0603 5.33698 12.0603 5.33698C12.1044 2.55534 13.9999 0.507042 16.9773 0.0327926C17.2495 -0.0109309 43.7499 -0.0109309 44.0221 0.0327926C46.9995 0.507042 48.8952 2.55534 48.9393 5.33698C48.9393 5.33698 48.9591 8.58246 48.9693 8.79275C48.9693 8.79275 57.7629 8.79275 58.7894 8.79414C60.1305 8.79599 61.0187 9.62905 60.9991 10.8496C60.9534 13.6213 58.4915 15.9898 55.4765 16.1156C54.3457 16.1628 51.7008 16.1253 51.7008 16.1253C49.1792 17.1213 49.4915 20.8139 49.5349 21.281C49.6148 22.1413 50.0342 22.9402 50.4273 23.6892C50.8076 24.4138 51.1634 25.0916 51.1638 25.7332C51.1647 27.3981 50.4457 28.76 49.1579 29.9054L49.7014 30.4738C50.6676 31.4799 51.1404 32.6577 51.1568 33.9978C51.1767 35.6318 50.0105 36.9497 48.2674 37.2176C48.0218 37.2554 47.7672 37.2442 47.5341 37.234C47.4329 37.2295 47.3357 37.2253 47.2451 37.2253C47.1553 37.3935 47.0746 37.5607 46.9958 37.7241C46.821 38.0865 46.6554 38.4298 46.4197 38.722C45.6587 39.6657 45.6666 40.4059 45.6731 41.0103C45.6732 41.0259 45.6734 41.0413 45.6735 41.0567C45.6853 42.2634 45.3683 43.236 44.3855 44.0547C43.6945 44.6305 41.4504 47.5028 41.4504 47.5028C40.9006 48.2429 40.0247 48.7211 39.0594 48.8353ZM31.8432 31.6849C32.4226 31.6819 33.002 31.6789 33.5811 31.6921C34.2552 31.7076 34.6731 32.1143 34.6796 32.7086C34.6858 33.3083 34.2813 33.7362 33.6023 33.7453C32.5682 33.7587 31.5339 33.7605 30.4998 33.7573C29.4655 33.7605 28.4312 33.7587 27.3971 33.7453C26.7181 33.7362 26.3138 33.3083 26.3198 32.7086C26.3263 32.1143 26.7442 31.7076 27.4183 31.6921C27.9974 31.6789 28.5768 31.6819 29.1562 31.6849C29.4057 31.6862 29.6551 31.6875 29.9046 31.6875V31.6833C30.0942 31.6833 30.2839 31.6824 30.4737 31.6815L30.4756 31.6815V31.6812C30.4836 31.6815 30.4917 31.6815 30.4998 31.6815L30.5238 31.6812V31.6815L30.5257 31.6815C30.7155 31.6824 30.9052 31.6833 31.095 31.6833V31.6875C31.3444 31.6875 31.5938 31.6862 31.8432 31.6849Z" fill="white"/>
</svg>
